<svg xmlns="http://www.w3.org/2000/svg" viewBox="0 0 512 512" fill="black">
    <path d="M112.01 320c-6.35 0-12.55-.54-18.6-1.56A111.66 111.66 0 01112 112a112.11 112.11 0 01100.31-110.59 87.75 87.75 0 01136.5 2.19A112.11 112.11 0 01463.22 112c0 10.32-1.39 20.29-3.92 29.82A111.4 111.4 0 01496 240c0 61.86-50.14 112-112 112H112z"/>
    <path d="M128 384c0-17.67 14.33-32 32-32s32 14.33 32 32-14.33 64-32 64-32-46.33-32-64zM224 416c0-17.67 14.33-32 32-32s32 14.33 32 32-14.33 64-32 64-32-46.33-32-64zM320 384c0-17.67 14.33-32 32-32s32 14.33 32 32-14.33 64-32 64-32-46.33-32-64z"/>
</svg>